<svg width="30" height="30" viewBox="0 0 30 30" fill="none" xmlns="http://www.w3.org/2000/svg">
<circle cx="15" cy="15" r="12" stroke="black" stroke-width="2"/>
<path d="M11.579 20.7212C11.1885 21.1117 11.1885 21.7449 11.579 22.1354C11.9695 22.5259 12.6027 22.5259 12.9932 22.1354L12.2861 21.4283L11.579 20.7212ZM19.3572 14.3572L18.6501 13.6501L11.579 20.7212L12.2861 21.4283L12.9932 22.1354L20.0643 15.0643L19.3572 14.3572Z" fill="black"/>
<path d="M12.9932 7.86473C12.6027 7.47421 11.9696 7.47421 11.579 7.86473C11.1885 8.25526 11.1885 8.88842 11.579 9.27895L12.2861 8.57184L12.9932 7.86473ZM12.2861 8.57184L11.579 9.27895L18.6501 16.35L19.3572 15.6429L20.0643 14.9358L12.9932 7.86473L12.2861 8.57184Z" fill="black"/>
</svg>
